# xmcd
#
# Track frame offsets:
#	150
#	14442
#	25795
#	36585
#	46587
#	59775
#	73420
#	85170
#	97960
#	110332
#	120102
#	131690
#	150000
#	163710
#	176382
#	192485
#	208122
#	218097
#	230422
#	246390
#
# Disc length: 3508 seconds
#
# Revision: 5
# Processed by: cddbd v1.5.2PL0 Copyright (c) Steve Scherf et al.
# Submitted via: EZCDAudioConverter 7.1.4.1
#
DISCID=100db214
DTITLE=Charley Pride - The Essential Charley Pride 
DYEAR=2003
DGENRE=Country
TTITLE0=Amazing Love
TTITLE1=We Could
TTITLE2=Mississippi Cotton Picking Delta Town
TTITLE3=Then Who Am I
TTITLE4=I Ain't All Bad
TTITLE5=Hope You're Feelin' Me (Like I'm Feelin' You)
TTITLE6=She's Just An Old Love Turned Memory
TTITLE7=I'll Be Leaving Alone
TTITLE8=More To Me
TTITLE9=Someone Loves You Honey
TTITLE10=When I Stop Leaving (I'll Be Gone)
TTITLE11=Where Do I Put Her Memory
TTITLE12=You Win Again
TTITLE13=You Almost Slipped My Mind
TTITLE14=Roll On Mississippi
TTITLE15=You're So Good When You're Bad
TTITLE16=Why Baby Why
TTITLE17=Night Games
TTITLE18=The Power Of Love
TTITLE19=Down On The Farm
EXTD=
EXTT0=
EXTT1=
EXTT2=
EXTT3=
EXTT4=
EXTT5=
EXTT6=
EXTT7=
EXTT8=
EXTT9=
EXTT10=
EXTT11=
EXTT12=
EXTT13=
EXTT14=
EXTT15=
EXTT16=
EXTT17=
EXTT18=
EXTT19=
PLAYORDER=
